<mxfile host="app.diagrams.net" modified="2023-01-12T17:26:35.855Z" agent="5.0 (Windows NT 10.0; Win64; x64) AppleWebKit/537.36 (KHTML, like Gecko) Chrome/108.0.0.0 Safari/537.36" etag="PLRSN5todht5eaZYMq75" version="20.8.4" type="github">
  <diagram id="QJjx0-fPxzvcmYibJWj1" name="Page-1">
    <mxGraphModel dx="1153" dy="1189" grid="1" gridSize="10" guides="1" tooltips="1" connect="1" arrows="1" fold="1" page="1" pageScale="1" pageWidth="827" pageHeight="583" math="0" shadow="0">
      <root>
        <mxCell id="0" />
        <mxCell id="1" parent="0" />
        <mxCell id="4f-DMQIj-ya-iA7LCkDa-1" value="" style="shape=cube;whiteSpace=wrap;html=1;boundedLbl=1;backgroundOutline=1;darkOpacity=0.05;darkOpacity2=0.1;size=110;direction=east;flipH=1;fillColor=#ffe6cc;strokeColor=#d79b00;" parent="1" vertex="1">
          <mxGeometry x="71" y="96" width="120" height="420" as="geometry" />
        </mxCell>
        <mxCell id="4f-DMQIj-ya-iA7LCkDa-2" value="" style="shape=cube;whiteSpace=wrap;html=1;boundedLbl=1;backgroundOutline=1;darkOpacity=0.05;darkOpacity2=0.1;size=110;direction=east;flipH=1;fillColor=#ffe6cc;strokeColor=#d79b00;" parent="1" vertex="1">
          <mxGeometry x="91" y="96" width="120" height="420" as="geometry" />
        </mxCell>
        <mxCell id="4f-DMQIj-ya-iA7LCkDa-3" value="" style="shape=cube;whiteSpace=wrap;html=1;boundedLbl=1;backgroundOutline=1;darkOpacity=0.05;darkOpacity2=0.1;size=70;direction=east;flipH=1;fillColor=#f8cecc;strokeColor=#b85450;" parent="1" vertex="1">
          <mxGeometry x="121" y="186" width="80" height="240" as="geometry" />
        </mxCell>
        <mxCell id="4f-DMQIj-ya-iA7LCkDa-4" value="" style="shape=cube;whiteSpace=wrap;html=1;boundedLbl=1;backgroundOutline=1;darkOpacity=0.05;darkOpacity2=0.1;size=70;direction=east;flipH=1;fillColor=#ffe6cc;strokeColor=#d79b00;" parent="1" vertex="1">
          <mxGeometry x="136" y="186" width="80" height="240" as="geometry" />
        </mxCell>
        <mxCell id="4f-DMQIj-ya-iA7LCkDa-5" value="" style="shape=cube;whiteSpace=wrap;html=1;boundedLbl=1;backgroundOutline=1;darkOpacity=0.05;darkOpacity2=0.1;size=70;direction=east;flipH=1;fillColor=#ffe6cc;strokeColor=#d79b00;" parent="1" vertex="1">
          <mxGeometry x="155" y="186" width="80" height="240" as="geometry" />
        </mxCell>
        <mxCell id="4f-DMQIj-ya-iA7LCkDa-6" value="" style="shape=cube;whiteSpace=wrap;html=1;boundedLbl=1;backgroundOutline=1;darkOpacity=0.05;darkOpacity2=0.1;size=40;direction=east;flipH=1;fillColor=#f8cecc;strokeColor=#b85450;" parent="1" vertex="1">
          <mxGeometry x="191" y="232.25" width="50" height="133.75" as="geometry" />
        </mxCell>
        <mxCell id="4f-DMQIj-ya-iA7LCkDa-7" value="" style="shape=cube;whiteSpace=wrap;html=1;boundedLbl=1;backgroundOutline=1;darkOpacity=0.05;darkOpacity2=0.1;size=40;direction=east;flipH=1;fillColor=#ffe6cc;strokeColor=#d79b00;" parent="1" vertex="1">
          <mxGeometry x="208" y="232.25" width="50" height="133.75" as="geometry" />
        </mxCell>
        <mxCell id="4f-DMQIj-ya-iA7LCkDa-8" value="" style="shape=cube;whiteSpace=wrap;html=1;boundedLbl=1;backgroundOutline=1;darkOpacity=0.05;darkOpacity2=0.1;size=40;direction=east;flipH=1;fillColor=#ffe6cc;strokeColor=#d79b00;" parent="1" vertex="1">
          <mxGeometry x="225" y="232.25" width="50" height="133.75" as="geometry" />
        </mxCell>
        <mxCell id="4f-DMQIj-ya-iA7LCkDa-9" value="" style="shape=cube;whiteSpace=wrap;html=1;boundedLbl=1;backgroundOutline=1;darkOpacity=0.05;darkOpacity2=0.1;size=40;direction=east;flipH=1;fillColor=#ffe6cc;strokeColor=#d79b00;" parent="1" vertex="1">
          <mxGeometry x="242" y="232.25" width="50" height="133.75" as="geometry" />
        </mxCell>
        <mxCell id="4f-DMQIj-ya-iA7LCkDa-10" value="" style="shape=cube;whiteSpace=wrap;html=1;boundedLbl=1;backgroundOutline=1;darkOpacity=0.05;darkOpacity2=0.1;size=20;direction=east;flipH=1;fillColor=#f8cecc;strokeColor=#b85450;" parent="1" vertex="1">
          <mxGeometry x="275" y="262.56" width="40" height="73.13" as="geometry" />
        </mxCell>
        <mxCell id="4f-DMQIj-ya-iA7LCkDa-11" value="" style="shape=cube;whiteSpace=wrap;html=1;boundedLbl=1;backgroundOutline=1;darkOpacity=0.05;darkOpacity2=0.1;size=20;direction=east;flipH=1;fillColor=#ffe6cc;strokeColor=#d79b00;" parent="1" vertex="1">
          <mxGeometry x="301" y="262.56" width="40" height="73.13" as="geometry" />
        </mxCell>
        <mxCell id="4f-DMQIj-ya-iA7LCkDa-12" value="" style="shape=cube;whiteSpace=wrap;html=1;boundedLbl=1;backgroundOutline=1;darkOpacity=0.05;darkOpacity2=0.1;size=20;direction=east;flipH=1;fillColor=#ffe6cc;strokeColor=#d79b00;" parent="1" vertex="1">
          <mxGeometry x="326" y="262.56" width="40" height="73.13" as="geometry" />
        </mxCell>
        <mxCell id="4f-DMQIj-ya-iA7LCkDa-13" value="" style="shape=cube;whiteSpace=wrap;html=1;boundedLbl=1;backgroundOutline=1;darkOpacity=0.05;darkOpacity2=0.1;size=20;direction=east;flipH=1;fillColor=#ffe6cc;strokeColor=#d79b00;" parent="1" vertex="1">
          <mxGeometry x="351" y="262.56" width="40" height="73.13" as="geometry" />
        </mxCell>
        <mxCell id="4f-DMQIj-ya-iA7LCkDa-15" value="" style="shape=cube;whiteSpace=wrap;html=1;boundedLbl=1;backgroundOutline=1;darkOpacity=0.05;darkOpacity2=0.1;size=10;direction=east;flipH=1;fillColor=#f8cecc;strokeColor=#b85450;" parent="1" vertex="1">
          <mxGeometry x="381" y="279.13" width="35" height="40" as="geometry" />
        </mxCell>
        <mxCell id="4f-DMQIj-ya-iA7LCkDa-16" value="" style="shape=cube;whiteSpace=wrap;html=1;boundedLbl=1;backgroundOutline=1;darkOpacity=0.05;darkOpacity2=0.1;size=10;direction=east;flipH=1;fillColor=#ffe6cc;strokeColor=#d79b00;" parent="1" vertex="1">
          <mxGeometry x="412" y="279.13" width="35" height="40" as="geometry" />
        </mxCell>
        <mxCell id="4f-DMQIj-ya-iA7LCkDa-19" value="" style="shape=cube;whiteSpace=wrap;html=1;boundedLbl=1;backgroundOutline=1;darkOpacity=0.05;darkOpacity2=0.1;size=7;direction=east;flipH=1;fillColor=#f8cecc;strokeColor=#b85450;" parent="1" vertex="1">
          <mxGeometry x="511" y="288.96" width="33" height="20.32" as="geometry" />
        </mxCell>
        <mxCell id="4f-DMQIj-ya-iA7LCkDa-20" value="" style="shape=cube;whiteSpace=wrap;html=1;boundedLbl=1;backgroundOutline=1;darkOpacity=0.05;darkOpacity2=0.1;size=3;direction=east;flipH=1;fillColor=#dae8fc;strokeColor=#6c8ebf;" parent="1" vertex="1">
          <mxGeometry x="590" y="38.99" width="74" height="8" as="geometry" />
        </mxCell>
        <mxCell id="4f-DMQIj-ya-iA7LCkDa-21" value="" style="shape=cube;whiteSpace=wrap;html=1;boundedLbl=1;backgroundOutline=1;darkOpacity=0.05;darkOpacity2=0.1;size=3;direction=east;flipH=1;fillColor=#dae8fc;strokeColor=#6c8ebf;" parent="1" vertex="1">
          <mxGeometry x="666" y="38.99999999999999" width="74" height="8" as="geometry" />
        </mxCell>
        <mxCell id="4f-DMQIj-ya-iA7LCkDa-23" value="" style="shape=cube;whiteSpace=wrap;html=1;boundedLbl=1;backgroundOutline=1;darkOpacity=0.05;darkOpacity2=0.1;size=7;direction=east;flipH=1;fillColor=#ffe6cc;strokeColor=#d79b00;" parent="1" vertex="1">
          <mxGeometry x="620" y="102.94000000000005" width="30" height="20" as="geometry" />
        </mxCell>
        <mxCell id="4f-DMQIj-ya-iA7LCkDa-24" value="" style="shape=cube;whiteSpace=wrap;html=1;boundedLbl=1;backgroundOutline=1;darkOpacity=0.05;darkOpacity2=0.1;size=7;direction=east;flipH=1;fillColor=#f8cecc;strokeColor=#b85450;" parent="1" vertex="1">
          <mxGeometry x="620" y="132.94000000000005" width="30" height="20" as="geometry" />
        </mxCell>
        <mxCell id="4f-DMQIj-ya-iA7LCkDa-26" value="" style="shape=cube;whiteSpace=wrap;html=1;boundedLbl=1;backgroundOutline=1;darkOpacity=0.05;darkOpacity2=0.1;size=7;direction=east;flipH=1;fillColor=#dae8fc;strokeColor=#6c8ebf;" parent="1" vertex="1">
          <mxGeometry x="620" y="162.94000000000005" width="30" height="20" as="geometry" />
        </mxCell>
        <mxCell id="4f-DMQIj-ya-iA7LCkDa-27" value="" style="shape=cube;whiteSpace=wrap;html=1;boundedLbl=1;backgroundOutline=1;darkOpacity=0.05;darkOpacity2=0.1;size=3;direction=east;flipH=1;fillColor=#d5e8d4;strokeColor=#82b366;" parent="1" vertex="1">
          <mxGeometry x="750" y="38.99" width="38" height="8" as="geometry" />
        </mxCell>
        <mxCell id="4f-DMQIj-ya-iA7LCkDa-28" value="" style="shape=cube;whiteSpace=wrap;html=1;boundedLbl=1;backgroundOutline=1;darkOpacity=0.05;darkOpacity2=0.1;size=7;direction=east;flipH=1;fillColor=#d5e8d4;strokeColor=#82b366;" parent="1" vertex="1">
          <mxGeometry x="620" y="192.94000000000005" width="30" height="20" as="geometry" />
        </mxCell>
        <mxCell id="4f-DMQIj-ya-iA7LCkDa-29" value="&lt;b&gt;conv1&lt;/b&gt;" style="text;html=1;strokeColor=none;fillColor=none;align=center;verticalAlign=middle;whiteSpace=wrap;rounded=0;" parent="1" vertex="1">
          <mxGeometry x="185" y="60" width="40" height="30" as="geometry" />
        </mxCell>
        <mxCell id="4f-DMQIj-ya-iA7LCkDa-31" value="&lt;b&gt;conv2&lt;/b&gt;" style="text;html=1;strokeColor=none;fillColor=none;align=center;verticalAlign=middle;whiteSpace=wrap;rounded=0;" parent="1" vertex="1">
          <mxGeometry x="216" y="152" width="40" height="30" as="geometry" />
        </mxCell>
        <mxCell id="4f-DMQIj-ya-iA7LCkDa-32" value="&lt;b&gt;conv3&lt;/b&gt;" style="text;html=1;strokeColor=none;fillColor=none;align=center;verticalAlign=middle;whiteSpace=wrap;rounded=0;" parent="1" vertex="1">
          <mxGeometry x="247" y="196" width="40" height="30" as="geometry" />
        </mxCell>
        <mxCell id="4f-DMQIj-ya-iA7LCkDa-33" value="&lt;b&gt;conv4&lt;/b&gt;" style="text;html=1;strokeColor=none;fillColor=none;align=center;verticalAlign=middle;whiteSpace=wrap;rounded=0;" parent="1" vertex="1">
          <mxGeometry x="326" y="232.25" width="40" height="30" as="geometry" />
        </mxCell>
        <mxCell id="4f-DMQIj-ya-iA7LCkDa-34" value="&lt;b&gt;conv5&lt;/b&gt;" style="text;html=1;strokeColor=none;fillColor=none;align=center;verticalAlign=middle;whiteSpace=wrap;rounded=0;" parent="1" vertex="1">
          <mxGeometry x="441" y="246" width="40" height="30" as="geometry" />
        </mxCell>
        <mxCell id="4f-DMQIj-ya-iA7LCkDa-35" value="&lt;b&gt;fc6&lt;/b&gt;" style="text;html=1;strokeColor=none;fillColor=none;align=center;verticalAlign=middle;whiteSpace=wrap;rounded=0;" parent="1" vertex="1">
          <mxGeometry x="605" y="8.990000000000002" width="40" height="30" as="geometry" />
        </mxCell>
        <mxCell id="4f-DMQIj-ya-iA7LCkDa-36" value="&lt;b&gt;fc7&lt;/b&gt;" style="text;html=1;strokeColor=none;fillColor=none;align=center;verticalAlign=middle;whiteSpace=wrap;rounded=0;" parent="1" vertex="1">
          <mxGeometry x="681" y="8.990000000000002" width="40" height="30" as="geometry" />
        </mxCell>
        <mxCell id="4f-DMQIj-ya-iA7LCkDa-38" value="224 x 224 x 64" style="text;html=1;strokeColor=none;fillColor=none;align=center;verticalAlign=middle;whiteSpace=wrap;rounded=0;" parent="1" vertex="1">
          <mxGeometry x="41" y="516" width="99" height="30" as="geometry" />
        </mxCell>
        <mxCell id="4f-DMQIj-ya-iA7LCkDa-39" value="112 x 112 x 128" style="text;html=1;strokeColor=none;fillColor=none;align=center;verticalAlign=middle;whiteSpace=wrap;rounded=0;" parent="1" vertex="1">
          <mxGeometry x="117" y="426" width="99" height="30" as="geometry" />
        </mxCell>
        <mxCell id="4f-DMQIj-ya-iA7LCkDa-40" value="56 x 56 x 256" style="text;html=1;strokeColor=none;fillColor=none;align=center;verticalAlign=middle;whiteSpace=wrap;rounded=0;" parent="1" vertex="1">
          <mxGeometry x="204" y="365" width="99" height="30" as="geometry" />
        </mxCell>
        <mxCell id="4f-DMQIj-ya-iA7LCkDa-41" value="28 x 28 x 512" style="text;html=1;strokeColor=none;fillColor=none;align=center;verticalAlign=middle;whiteSpace=wrap;rounded=0;" parent="1" vertex="1">
          <mxGeometry x="275" y="332" width="99" height="30" as="geometry" />
        </mxCell>
        <mxCell id="4f-DMQIj-ya-iA7LCkDa-42" value="14 x 14 x 512" style="text;html=1;strokeColor=none;fillColor=none;align=center;verticalAlign=middle;whiteSpace=wrap;rounded=0;" parent="1" vertex="1">
          <mxGeometry x="391" y="317.12" width="99" height="30" as="geometry" />
        </mxCell>
        <mxCell id="4f-DMQIj-ya-iA7LCkDa-43" value="" style="shape=cube;whiteSpace=wrap;html=1;boundedLbl=1;backgroundOutline=1;darkOpacity=0.05;darkOpacity2=0.1;size=10;direction=east;flipH=1;fillColor=#ffe6cc;strokeColor=#d79b00;" parent="1" vertex="1">
          <mxGeometry x="441" y="279.13" width="35" height="40" as="geometry" />
        </mxCell>
        <mxCell id="4f-DMQIj-ya-iA7LCkDa-44" value="" style="shape=cube;whiteSpace=wrap;html=1;boundedLbl=1;backgroundOutline=1;darkOpacity=0.05;darkOpacity2=0.1;size=10;direction=east;flipH=1;fillColor=#ffe6cc;strokeColor=#d79b00;" parent="1" vertex="1">
          <mxGeometry x="472" y="279.12" width="35" height="40" as="geometry" />
        </mxCell>
        <mxCell id="4f-DMQIj-ya-iA7LCkDa-46" value="7 x 7 x 512" style="text;html=1;strokeColor=none;fillColor=none;align=center;verticalAlign=middle;whiteSpace=wrap;rounded=0;" parent="1" vertex="1">
          <mxGeometry x="474" y="342.12" width="99" height="23.88" as="geometry" />
        </mxCell>
        <mxCell id="4f-DMQIj-ya-iA7LCkDa-47" value="" style="endArrow=classic;html=1;entryX=0.605;entryY=1.084;entryDx=0;entryDy=0;entryPerimeter=0;" parent="1" source="4f-DMQIj-ya-iA7LCkDa-46" target="4f-DMQIj-ya-iA7LCkDa-19" edge="1">
          <mxGeometry width="50" height="50" relative="1" as="geometry">
            <mxPoint x="527.16" y="347.12" as="sourcePoint" />
            <mxPoint x="528" y="317" as="targetPoint" />
          </mxGeometry>
        </mxCell>
        <mxCell id="4f-DMQIj-ya-iA7LCkDa-50" value="convolutional + ReLU" style="text;html=1;strokeColor=none;fillColor=none;align=left;verticalAlign=middle;whiteSpace=wrap;rounded=0;fontStyle=1" parent="1" vertex="1">
          <mxGeometry x="661" y="100" width="138" height="23.88" as="geometry" />
        </mxCell>
        <mxCell id="4f-DMQIj-ya-iA7LCkDa-51" value="max pooling" style="text;html=1;strokeColor=none;fillColor=none;align=left;verticalAlign=middle;whiteSpace=wrap;rounded=0;fontStyle=1" parent="1" vertex="1">
          <mxGeometry x="661" y="130" width="138" height="23.88" as="geometry" />
        </mxCell>
        <mxCell id="4f-DMQIj-ya-iA7LCkDa-52" value="fully connected + ReLU" style="text;html=1;strokeColor=none;fillColor=none;align=left;verticalAlign=middle;whiteSpace=wrap;rounded=0;fontStyle=1" parent="1" vertex="1">
          <mxGeometry x="661" y="161.05999999999995" width="138" height="23.88" as="geometry" />
        </mxCell>
        <mxCell id="4f-DMQIj-ya-iA7LCkDa-53" value="softmax" style="text;html=1;strokeColor=none;fillColor=none;align=left;verticalAlign=middle;whiteSpace=wrap;rounded=0;fontStyle=1" parent="1" vertex="1">
          <mxGeometry x="660" y="189.05999999999995" width="138" height="23.88" as="geometry" />
        </mxCell>
        <mxCell id="9twHIw4gj4ooDy6lVqK0-92" value="" style="shape=cube;whiteSpace=wrap;html=1;boundedLbl=1;backgroundOutline=1;darkOpacity=0.05;darkOpacity2=0.1;size=110;direction=east;flipH=1;fillColor=#ffe6cc;strokeColor=#d79b00;" vertex="1" parent="1">
          <mxGeometry x="81" y="-305" width="120" height="420" as="geometry" />
        </mxCell>
        <mxCell id="9twHIw4gj4ooDy6lVqK0-93" value="" style="shape=cube;whiteSpace=wrap;html=1;boundedLbl=1;backgroundOutline=1;darkOpacity=0.05;darkOpacity2=0.1;size=110;direction=east;flipH=1;fillColor=#ffe6cc;strokeColor=#d79b00;" vertex="1" parent="1">
          <mxGeometry x="101" y="-305" width="120" height="420" as="geometry" />
        </mxCell>
        <mxCell id="9twHIw4gj4ooDy6lVqK0-94" value="" style="shape=cube;whiteSpace=wrap;html=1;boundedLbl=1;backgroundOutline=1;darkOpacity=0.05;darkOpacity2=0.1;size=70;direction=east;flipH=1;fillColor=#f8cecc;strokeColor=#b85450;" vertex="1" parent="1">
          <mxGeometry x="131" y="-215" width="80" height="240" as="geometry" />
        </mxCell>
        <mxCell id="9twHIw4gj4ooDy6lVqK0-95" value="" style="shape=cube;whiteSpace=wrap;html=1;boundedLbl=1;backgroundOutline=1;darkOpacity=0.05;darkOpacity2=0.1;size=70;direction=east;flipH=1;fillColor=#ffe6cc;strokeColor=#d79b00;" vertex="1" parent="1">
          <mxGeometry x="146" y="-215" width="80" height="240" as="geometry" />
        </mxCell>
        <mxCell id="9twHIw4gj4ooDy6lVqK0-96" value="" style="shape=cube;whiteSpace=wrap;html=1;boundedLbl=1;backgroundOutline=1;darkOpacity=0.05;darkOpacity2=0.1;size=70;direction=east;flipH=1;fillColor=#ffe6cc;strokeColor=#d79b00;" vertex="1" parent="1">
          <mxGeometry x="165" y="-215" width="80" height="240" as="geometry" />
        </mxCell>
        <mxCell id="9twHIw4gj4ooDy6lVqK0-97" value="" style="shape=cube;whiteSpace=wrap;html=1;boundedLbl=1;backgroundOutline=1;darkOpacity=0.05;darkOpacity2=0.1;size=40;direction=east;flipH=1;fillColor=#f8cecc;strokeColor=#b85450;" vertex="1" parent="1">
          <mxGeometry x="201" y="-168.75" width="50" height="133.75" as="geometry" />
        </mxCell>
        <mxCell id="9twHIw4gj4ooDy6lVqK0-98" value="" style="shape=cube;whiteSpace=wrap;html=1;boundedLbl=1;backgroundOutline=1;darkOpacity=0.05;darkOpacity2=0.1;size=40;direction=east;flipH=1;fillColor=#ffe6cc;strokeColor=#d79b00;" vertex="1" parent="1">
          <mxGeometry x="218" y="-168.75" width="50" height="133.75" as="geometry" />
        </mxCell>
        <mxCell id="9twHIw4gj4ooDy6lVqK0-99" value="" style="shape=cube;whiteSpace=wrap;html=1;boundedLbl=1;backgroundOutline=1;darkOpacity=0.05;darkOpacity2=0.1;size=40;direction=east;flipH=1;fillColor=#ffe6cc;strokeColor=#d79b00;" vertex="1" parent="1">
          <mxGeometry x="235" y="-168.75" width="50" height="133.75" as="geometry" />
        </mxCell>
        <mxCell id="9twHIw4gj4ooDy6lVqK0-100" value="" style="shape=cube;whiteSpace=wrap;html=1;boundedLbl=1;backgroundOutline=1;darkOpacity=0.05;darkOpacity2=0.1;size=40;direction=east;flipH=1;fillColor=#ffe6cc;strokeColor=#d79b00;" vertex="1" parent="1">
          <mxGeometry x="252" y="-168.75" width="50" height="133.75" as="geometry" />
        </mxCell>
        <mxCell id="9twHIw4gj4ooDy6lVqK0-101" value="" style="shape=cube;whiteSpace=wrap;html=1;boundedLbl=1;backgroundOutline=1;darkOpacity=0.05;darkOpacity2=0.1;size=20;direction=east;flipH=1;fillColor=#f8cecc;strokeColor=#b85450;" vertex="1" parent="1">
          <mxGeometry x="285" y="-138.44" width="40" height="73.13" as="geometry" />
        </mxCell>
        <mxCell id="9twHIw4gj4ooDy6lVqK0-102" value="" style="shape=cube;whiteSpace=wrap;html=1;boundedLbl=1;backgroundOutline=1;darkOpacity=0.05;darkOpacity2=0.1;size=20;direction=east;flipH=1;fillColor=#ffe6cc;strokeColor=#d79b00;" vertex="1" parent="1">
          <mxGeometry x="311" y="-138.44" width="40" height="73.13" as="geometry" />
        </mxCell>
        <mxCell id="9twHIw4gj4ooDy6lVqK0-103" value="" style="shape=cube;whiteSpace=wrap;html=1;boundedLbl=1;backgroundOutline=1;darkOpacity=0.05;darkOpacity2=0.1;size=20;direction=east;flipH=1;fillColor=#ffe6cc;strokeColor=#d79b00;" vertex="1" parent="1">
          <mxGeometry x="336" y="-138.44" width="40" height="73.13" as="geometry" />
        </mxCell>
        <mxCell id="9twHIw4gj4ooDy6lVqK0-104" value="" style="shape=cube;whiteSpace=wrap;html=1;boundedLbl=1;backgroundOutline=1;darkOpacity=0.05;darkOpacity2=0.1;size=20;direction=east;flipH=1;fillColor=#ffe6cc;strokeColor=#d79b00;" vertex="1" parent="1">
          <mxGeometry x="361" y="-138.44" width="40" height="73.13" as="geometry" />
        </mxCell>
        <mxCell id="9twHIw4gj4ooDy6lVqK0-105" value="" style="shape=cube;whiteSpace=wrap;html=1;boundedLbl=1;backgroundOutline=1;darkOpacity=0.05;darkOpacity2=0.1;size=10;direction=east;flipH=1;fillColor=#f8cecc;strokeColor=#b85450;" vertex="1" parent="1">
          <mxGeometry x="391" y="-121.87" width="35" height="40" as="geometry" />
        </mxCell>
        <mxCell id="9twHIw4gj4ooDy6lVqK0-106" value="" style="shape=cube;whiteSpace=wrap;html=1;boundedLbl=1;backgroundOutline=1;darkOpacity=0.05;darkOpacity2=0.1;size=10;direction=east;flipH=1;fillColor=#ffe6cc;strokeColor=#d79b00;" vertex="1" parent="1">
          <mxGeometry x="422" y="-121.87" width="35" height="40" as="geometry" />
        </mxCell>
        <mxCell id="9twHIw4gj4ooDy6lVqK0-107" value="" style="shape=cube;whiteSpace=wrap;html=1;boundedLbl=1;backgroundOutline=1;darkOpacity=0.05;darkOpacity2=0.1;size=7;direction=east;flipH=1;fillColor=#f8cecc;strokeColor=#b85450;" vertex="1" parent="1">
          <mxGeometry x="521" y="-112.04000000000002" width="33" height="20.32" as="geometry" />
        </mxCell>
        <mxCell id="9twHIw4gj4ooDy6lVqK0-112" value="&lt;b&gt;conv2&lt;/b&gt;" style="text;html=1;strokeColor=none;fillColor=none;align=center;verticalAlign=middle;whiteSpace=wrap;rounded=0;" vertex="1" parent="1">
          <mxGeometry x="226" y="-249" width="40" height="30" as="geometry" />
        </mxCell>
        <mxCell id="9twHIw4gj4ooDy6lVqK0-113" value="&lt;b&gt;conv3&lt;/b&gt;" style="text;html=1;strokeColor=none;fillColor=none;align=center;verticalAlign=middle;whiteSpace=wrap;rounded=0;" vertex="1" parent="1">
          <mxGeometry x="257" y="-205" width="40" height="30" as="geometry" />
        </mxCell>
        <mxCell id="9twHIw4gj4ooDy6lVqK0-114" value="&lt;b&gt;conv4&lt;/b&gt;" style="text;html=1;strokeColor=none;fillColor=none;align=center;verticalAlign=middle;whiteSpace=wrap;rounded=0;" vertex="1" parent="1">
          <mxGeometry x="336" y="-168.75" width="40" height="30" as="geometry" />
        </mxCell>
        <mxCell id="9twHIw4gj4ooDy6lVqK0-115" value="&lt;b&gt;conv5&lt;/b&gt;" style="text;html=1;strokeColor=none;fillColor=none;align=center;verticalAlign=middle;whiteSpace=wrap;rounded=0;" vertex="1" parent="1">
          <mxGeometry x="451" y="-155" width="40" height="30" as="geometry" />
        </mxCell>
        <mxCell id="9twHIw4gj4ooDy6lVqK0-119" value="224 x 224 x 64" style="text;html=1;strokeColor=none;fillColor=none;align=center;verticalAlign=middle;whiteSpace=wrap;rounded=0;" vertex="1" parent="1">
          <mxGeometry x="51" y="115" width="99" height="30" as="geometry" />
        </mxCell>
        <mxCell id="9twHIw4gj4ooDy6lVqK0-120" value="112 x 112 x 128" style="text;html=1;strokeColor=none;fillColor=none;align=center;verticalAlign=middle;whiteSpace=wrap;rounded=0;" vertex="1" parent="1">
          <mxGeometry x="127" y="25" width="99" height="30" as="geometry" />
        </mxCell>
        <mxCell id="9twHIw4gj4ooDy6lVqK0-121" value="56 x 56 x 256" style="text;html=1;strokeColor=none;fillColor=none;align=center;verticalAlign=middle;whiteSpace=wrap;rounded=0;" vertex="1" parent="1">
          <mxGeometry x="214" y="-36" width="99" height="30" as="geometry" />
        </mxCell>
        <mxCell id="9twHIw4gj4ooDy6lVqK0-122" value="28 x 28 x 512" style="text;html=1;strokeColor=none;fillColor=none;align=center;verticalAlign=middle;whiteSpace=wrap;rounded=0;" vertex="1" parent="1">
          <mxGeometry x="285" y="-69" width="99" height="30" as="geometry" />
        </mxCell>
        <mxCell id="9twHIw4gj4ooDy6lVqK0-124" value="" style="shape=cube;whiteSpace=wrap;html=1;boundedLbl=1;backgroundOutline=1;darkOpacity=0.05;darkOpacity2=0.1;size=10;direction=east;flipH=1;fillColor=#ffe6cc;strokeColor=#d79b00;" vertex="1" parent="1">
          <mxGeometry x="451" y="-121.87" width="35" height="40" as="geometry" />
        </mxCell>
        <mxCell id="9twHIw4gj4ooDy6lVqK0-125" value="" style="shape=cube;whiteSpace=wrap;html=1;boundedLbl=1;backgroundOutline=1;darkOpacity=0.05;darkOpacity2=0.1;size=10;direction=east;flipH=1;fillColor=#ffe6cc;strokeColor=#d79b00;" vertex="1" parent="1">
          <mxGeometry x="482" y="-121.88" width="35" height="40" as="geometry" />
        </mxCell>
        <mxCell id="9twHIw4gj4ooDy6lVqK0-130" value="&lt;b&gt;conv1&lt;/b&gt;" style="text;html=1;strokeColor=none;fillColor=none;align=center;verticalAlign=middle;whiteSpace=wrap;rounded=0;" vertex="1" parent="1">
          <mxGeometry x="195" y="-334" width="40" height="30" as="geometry" />
        </mxCell>
        <mxCell id="9twHIw4gj4ooDy6lVqK0-131" value="" style="ellipse;whiteSpace=wrap;html=1;aspect=fixed;fillColor=#d5e8d4;strokeColor=#82b366;" vertex="1" parent="1">
          <mxGeometry x="437" y="-390" width="20" height="20" as="geometry" />
        </mxCell>
        <mxCell id="9twHIw4gj4ooDy6lVqK0-132" value="" style="ellipse;whiteSpace=wrap;html=1;aspect=fixed;fillColor=#d5e8d4;strokeColor=#82b366;" vertex="1" parent="1">
          <mxGeometry x="437" y="-360" width="20" height="20" as="geometry" />
        </mxCell>
        <mxCell id="9twHIw4gj4ooDy6lVqK0-133" value="" style="ellipse;whiteSpace=wrap;html=1;aspect=fixed;fillColor=#d5e8d4;strokeColor=#82b366;" vertex="1" parent="1">
          <mxGeometry x="437" y="-329" width="20" height="20" as="geometry" />
        </mxCell>
        <mxCell id="9twHIw4gj4ooDy6lVqK0-134" value="" style="ellipse;whiteSpace=wrap;html=1;aspect=fixed;fillColor=#d5e8d4;strokeColor=#82b366;" vertex="1" parent="1">
          <mxGeometry x="466" y="-390" width="20" height="20" as="geometry" />
        </mxCell>
        <mxCell id="9twHIw4gj4ooDy6lVqK0-135" value="" style="ellipse;whiteSpace=wrap;html=1;aspect=fixed;fillColor=#d5e8d4;strokeColor=#82b366;" vertex="1" parent="1">
          <mxGeometry x="466" y="-360" width="20" height="20" as="geometry" />
        </mxCell>
        <mxCell id="9twHIw4gj4ooDy6lVqK0-136" value="" style="ellipse;whiteSpace=wrap;html=1;aspect=fixed;fillColor=#d5e8d4;strokeColor=#82b366;" vertex="1" parent="1">
          <mxGeometry x="466" y="-329" width="20" height="20" as="geometry" />
        </mxCell>
        <mxCell id="9twHIw4gj4ooDy6lVqK0-137" value="" style="ellipse;whiteSpace=wrap;html=1;aspect=fixed;fillColor=#d5e8d4;strokeColor=#82b366;" vertex="1" parent="1">
          <mxGeometry x="497" y="-330" width="20" height="20" as="geometry" />
        </mxCell>
        <mxCell id="9twHIw4gj4ooDy6lVqK0-138" value="" style="ellipse;whiteSpace=wrap;html=1;aspect=fixed;fillColor=#d5e8d4;strokeColor=#82b366;" vertex="1" parent="1">
          <mxGeometry x="497" y="-360" width="20" height="20" as="geometry" />
        </mxCell>
        <mxCell id="9twHIw4gj4ooDy6lVqK0-139" value="" style="ellipse;whiteSpace=wrap;html=1;aspect=fixed;fillColor=#d5e8d4;strokeColor=#82b366;" vertex="1" parent="1">
          <mxGeometry x="497" y="-390" width="20" height="20" as="geometry" />
        </mxCell>
        <mxCell id="9twHIw4gj4ooDy6lVqK0-140" value="&lt;b&gt;11x3 fully connected NN for clinical variables&lt;/b&gt;" style="text;html=1;strokeColor=none;fillColor=none;align=center;verticalAlign=middle;whiteSpace=wrap;rounded=0;" vertex="1" parent="1">
          <mxGeometry x="410" y="-440" width="149" height="30" as="geometry" />
        </mxCell>
        <mxCell id="9twHIw4gj4ooDy6lVqK0-142" value="" style="shape=flexArrow;endArrow=classic;startArrow=classic;html=1;rounded=0;fillColor=#f8cecc;strokeColor=#b85450;entryX=0;entryY=0.75;entryDx=0;entryDy=0;" edge="1" parent="1">
          <mxGeometry width="100" height="100" relative="1" as="geometry">
            <mxPoint x="401" y="270" as="sourcePoint" />
            <mxPoint x="401" y="-61.38000000000011" as="targetPoint" />
          </mxGeometry>
        </mxCell>
        <mxCell id="9twHIw4gj4ooDy6lVqK0-143" value="" style="shape=flexArrow;endArrow=classic;startArrow=classic;html=1;rounded=0;fillColor=#f8cecc;strokeColor=#b85450;entryX=0;entryY=0.75;entryDx=0;entryDy=0;" edge="1" parent="1">
          <mxGeometry width="100" height="100" relative="1" as="geometry">
            <mxPoint x="527" y="266.07" as="sourcePoint" />
            <mxPoint x="527" y="-65.31000000000012" as="targetPoint" />
          </mxGeometry>
        </mxCell>
        <mxCell id="9twHIw4gj4ooDy6lVqK0-144" value="&lt;b&gt;concatenation&lt;/b&gt;" style="text;html=1;strokeColor=none;fillColor=none;align=center;verticalAlign=middle;whiteSpace=wrap;rounded=0;" vertex="1" parent="1">
          <mxGeometry x="438.5" y="90" width="40" height="30" as="geometry" />
        </mxCell>
        <mxCell id="9twHIw4gj4ooDy6lVqK0-147" value="" style="shape=flexArrow;endArrow=classic;startArrow=classic;html=1;rounded=0;fillColor=#f8cecc;strokeColor=#b85450;entryX=0;entryY=0.75;entryDx=0;entryDy=0;" edge="1" parent="1">
          <mxGeometry width="100" height="100" relative="1" as="geometry">
            <mxPoint x="537.5" y="-152.62" as="sourcePoint" />
            <mxPoint x="537" y="-290.00000000000017" as="targetPoint" />
          </mxGeometry>
        </mxCell>
        <mxCell id="9twHIw4gj4ooDy6lVqK0-148" value="&lt;b&gt;T1&lt;/b&gt;" style="text;html=1;strokeColor=none;fillColor=none;align=center;verticalAlign=middle;whiteSpace=wrap;rounded=0;" vertex="1" parent="1">
          <mxGeometry x="11" y="-142.04" width="40" height="30" as="geometry" />
        </mxCell>
        <mxCell id="9twHIw4gj4ooDy6lVqK0-149" value="&lt;b&gt;T2&lt;/b&gt;" style="text;html=1;strokeColor=none;fillColor=none;align=center;verticalAlign=middle;whiteSpace=wrap;rounded=0;" vertex="1" parent="1">
          <mxGeometry x="11" y="256.13" width="40" height="30" as="geometry" />
        </mxCell>
      </root>
    </mxGraphModel>
  </diagram>
</mxfile>
